<svg width="35" height="35" viewBox="0 0 35 35" fill="none" xmlns="http://www.w3.org/2000/svg">
<g clip-path="url(#clip0_1480_4020)">
<path d="M17.4999 34.9006C27.11 34.9006 34.9005 27.1101 34.9005 17.5C34.9005 7.88993 27.11 0.0994263 17.4999 0.0994263C7.88986 0.0994263 0.0993652 7.88993 0.0993652 17.5C0.0993652 27.1101 7.88986 34.9006 17.4999 34.9006Z" fill="#FFFA37"/>
<path fill-rule="evenodd" clip-rule="evenodd" d="M23.7462 7.78738C22.5463 6.27512 20.5666 5.07101 17.5147 5.07101C14.9012 5.09675 9.67444 6.54317 9.67444 12.123C9.67444 12.9378 9.73895 14.0292 9.79531 14.8329C9.72888 14.8136 9.64722 14.7774 9.5178 14.7154L9.49981 14.7068C9.27096 14.597 8.92299 14.4298 8.43903 14.4298C7.95013 14.4298 7.47741 14.6213 7.12646 14.9053C6.77763 15.1875 6.47964 15.6214 6.47964 16.1459C6.47964 16.802 6.84888 17.2375 7.28062 17.5168C7.6641 17.7649 8.14767 17.9233 8.53047 18.0487L8.56831 18.061C8.97806 18.1955 9.27836 18.2979 9.48541 18.4269C9.64658 18.5275 9.67104 18.591 9.67407 18.6514C9.67197 18.66 9.66703 18.6785 9.65631 18.7086C9.63421 18.7707 9.59746 18.8546 9.54374 18.9595C9.43658 19.1688 9.28031 19.4262 9.09442 19.7007C8.71941 20.2544 8.26175 20.8223 7.91989 21.1511C7.5827 21.4755 7.02936 21.8786 6.45084 22.1995C6.16394 22.3586 5.88338 22.4905 5.6324 22.5811C5.37332 22.6745 5.18347 22.7102 5.06615 22.7102C4.97328 22.7102 4.8929 22.7292 4.85783 22.7381C4.80852 22.7504 4.75749 22.7666 4.70702 22.7857C4.60689 22.8232 4.48756 22.8796 4.36936 22.9592C4.14354 23.1112 3.82812 23.4177 3.82812 23.9012C3.82812 24.1535 3.88736 24.3671 3.98976 24.5524C4.0794 24.7146 4.19462 24.8378 4.26094 24.9087L4.27078 24.9191L4.28913 24.9389C4.65384 25.3312 5.25756 25.6043 5.84363 25.7916C6.34722 25.9526 6.91026 26.0725 7.4589 26.1445C7.46665 26.1799 7.47475 26.2179 7.48361 26.2597L7.48647 26.2732C7.52101 26.4361 7.56676 26.6518 7.63414 26.8508C7.69771 27.0385 7.81284 27.316 8.04856 27.5138C8.34876 27.7655 8.7414 27.7909 8.99758 27.7899C9.2726 27.7888 9.59369 27.75 9.89836 27.7134L9.9243 27.7103C10.353 27.6586 10.8015 27.6052 11.266 27.6052C12.1137 27.6052 12.657 27.9593 13.5096 28.5415L13.5153 28.5455C13.8106 28.7472 14.1412 28.9729 14.517 29.195C15.7751 29.9384 16.7973 29.9321 17.3766 29.9283C17.4149 29.9281 17.451 29.928 17.4853 29.928C17.5196 29.928 17.5562 29.9281 17.5946 29.9283C18.1749 29.9321 19.2243 29.9388 20.483 29.195C20.8588 28.9729 21.1894 28.7472 21.4846 28.5455L21.4904 28.5415C22.3429 27.9593 22.8863 27.6052 23.734 27.6052C24.1985 27.6052 24.647 27.6586 25.0757 27.7103L25.1017 27.7134C25.4063 27.75 25.7274 27.7888 26.0024 27.7899C26.2586 27.7909 26.6512 27.7655 26.9515 27.5138C27.1871 27.316 27.3022 27.0385 27.3659 26.8508C27.4332 26.6519 27.479 26.4362 27.5135 26.2732L27.5164 26.2597C27.5252 26.2179 27.5333 26.1799 27.5411 26.1445C28.0897 26.0725 28.6528 25.9526 29.1564 25.7916C29.7424 25.6043 30.3462 25.3311 30.7109 24.9387L30.7293 24.9191L30.739 24.9087C30.8053 24.8378 30.9206 24.7146 31.0102 24.5524C31.1126 24.3671 31.1719 24.1535 31.1719 23.9012C31.1719 23.4177 30.8564 23.1112 30.6306 22.9592C30.5124 22.8796 30.3931 22.8232 30.293 22.7857C30.2426 22.7666 30.1915 22.7504 30.1421 22.7381C30.1071 22.7292 30.0267 22.7102 29.9338 22.7102C29.8165 22.7102 29.6267 22.6745 29.3676 22.5811C29.1166 22.4905 28.8361 22.3586 28.5491 22.1995C27.9707 21.8786 27.4173 21.4755 27.0801 21.1511C26.7382 20.8223 26.2806 20.2544 25.9056 19.7007C25.7197 19.4262 25.5634 19.1688 25.4563 18.9595C25.4026 18.8546 25.3658 18.7707 25.3437 18.7086C25.333 18.6785 25.328 18.66 25.3259 18.6514C25.329 18.591 25.3534 18.5275 25.5146 18.4269C25.7216 18.2979 26.0219 18.1955 26.4317 18.061L26.4695 18.0487C26.8523 17.9233 27.3359 17.7649 27.7194 17.5168C28.1511 17.2375 28.5204 16.802 28.5204 16.1459C28.5204 15.6214 28.2224 15.1875 27.8735 14.9053C27.5226 14.6213 27.0498 14.4298 26.561 14.4298C26.077 14.4298 25.7291 14.597 25.5002 14.7068L25.4823 14.7154C25.3528 14.7774 25.2711 14.8136 25.2047 14.8329C25.261 14.0292 25.3255 12.9378 25.3255 12.123C25.3255 11.0167 24.9233 9.27081 23.7462 7.78738ZM12.2589 8.51725C11.2634 9.76356 10.9222 11.2435 10.9222 12.123C10.9222 12.9384 10.9913 14.0712 11.0496 14.8836C11.069 15.1533 11.0137 15.4679 10.778 15.7174C10.5395 15.9701 10.2151 16.0521 9.9253 16.0521C9.50679 16.0521 9.18849 15.899 8.98488 15.8011L8.96124 15.7898C8.73407 15.6808 8.61462 15.6302 8.43903 15.6302C8.27929 15.6302 8.08427 15.6988 7.92961 15.8239C7.77286 15.9507 7.72741 16.0749 7.72741 16.1459C7.72741 16.2905 7.78076 16.3939 7.97684 16.5207C8.20843 16.6705 8.53841 16.7831 8.97097 16.925L9.00863 16.9373C9.36787 17.055 9.81281 17.2008 10.1639 17.4197C10.558 17.6653 10.9222 18.0602 10.9222 18.6684C10.9222 18.8279 10.8781 18.9814 10.8367 19.0976C10.7918 19.2238 10.7312 19.357 10.6631 19.4899C10.5268 19.7561 10.3425 20.0568 10.1399 20.3559C9.73789 20.9495 9.2269 21.5914 8.8022 21.9999C8.37284 22.4129 7.72713 22.8771 7.07406 23.2394C6.74516 23.4218 6.40177 23.5853 6.07066 23.7049C5.77427 23.8118 5.45483 23.8956 5.14838 23.9087C5.14075 23.912 5.13231 23.9158 5.12347 23.9202C5.10934 23.9274 5.09613 23.935 5.0846 23.9428L5.0787 23.9469C5.07986 23.9551 5.08118 23.9612 5.08228 23.9655C5.08473 23.9751 5.08764 23.982 5.09156 23.989C5.10357 24.0108 5.12252 24.035 5.19917 24.1172L5.21928 24.1387C5.35736 24.2873 5.69764 24.4801 6.23705 24.6525C6.75077 24.8167 7.35824 24.9353 7.93218 24.9897C8.21934 25.0169 8.38485 25.1964 8.4549 25.2931C8.52701 25.3925 8.56825 25.4977 8.59235 25.5674C8.63897 25.7024 8.67418 25.8687 8.70196 25.9998L8.70617 26.0197C8.7441 26.1984 8.77727 26.3513 8.82053 26.4789C8.83582 26.5242 8.84993 26.5585 8.86207 26.5837C8.88945 26.5869 8.93145 26.5899 8.99228 26.5897C9.25618 26.5886 9.5204 26.5493 9.78188 26.5177C10.2002 26.4672 10.7179 26.4049 11.266 26.4049C12.5372 26.4049 13.3761 26.9781 14.1864 27.5318L14.2319 27.5629C14.5317 27.7676 14.8322 27.9725 15.1702 28.1723C16.1225 28.735 16.8471 28.7309 17.3766 28.728C17.4137 28.7278 17.45 28.7276 17.4853 28.7276C17.5204 28.7276 17.5564 28.7278 17.5936 28.728C18.1288 28.7308 18.8778 28.7349 19.8298 28.1723C20.1678 27.9725 20.4683 27.7676 20.7681 27.5629L20.8136 27.5318C21.6239 26.9781 22.4628 26.4049 23.734 26.4049C24.2821 26.4049 24.7998 26.4672 25.2181 26.5177L25.2307 26.5192C25.569 26.56 25.8166 26.5888 26.0078 26.5897C26.0685 26.5899 26.1105 26.5869 26.1379 26.5837C26.1501 26.5585 26.1641 26.5242 26.1795 26.4789C26.2228 26.3513 26.2558 26.1984 26.2939 26.0197L26.2981 25.9998C26.3258 25.8685 26.361 25.7024 26.4076 25.5674C26.4317 25.4977 26.473 25.3925 26.5451 25.2931C26.6152 25.1964 26.7807 25.0169 27.0678 24.9897C27.6418 24.9353 28.2492 24.8167 28.7629 24.6525C29.3023 24.4801 29.6426 24.2873 29.7807 24.1388L29.8008 24.1172C29.8774 24.035 29.8964 24.0108 29.9085 23.989C29.9123 23.982 29.9153 23.9751 29.9177 23.9655C29.9188 23.9612 29.9201 23.9551 29.9213 23.9469L29.9154 23.9428C29.9039 23.935 29.8907 23.9274 29.8765 23.9202C29.8677 23.9157 29.8592 23.912 29.8517 23.9087C29.5452 23.8956 29.2257 23.8118 28.9293 23.7049C28.5982 23.5853 28.2548 23.4218 27.9259 23.2394C27.2729 22.8771 26.6272 22.4129 26.1978 21.9999C25.7731 21.5914 25.2621 20.9495 24.8601 20.3559C24.6575 20.0568 24.4732 19.7561 24.3369 19.4899C24.2688 19.357 24.2082 19.2238 24.1633 19.0976C24.1219 18.9814 24.0778 18.8279 24.0778 18.6684C24.0778 18.0602 24.442 17.6653 24.8361 17.4197C25.1872 17.2008 25.6322 17.055 25.9914 16.9373L26.029 16.925C26.4615 16.7831 26.7915 16.6705 27.0232 16.5207C27.2192 16.3939 27.2725 16.2905 27.2725 16.1459C27.2725 16.0749 27.2272 15.9507 27.0704 15.8239C26.9157 15.6988 26.7207 15.6302 26.561 15.6302C26.3853 15.6302 26.2659 15.6808 26.0387 15.7898L26.0151 15.8011C25.8115 15.899 25.4932 16.0521 25.0747 16.0521C24.7849 16.0521 24.4605 15.9701 24.222 15.7174C23.9863 15.4679 23.931 15.1533 23.9504 14.8836C24.0087 14.0712 24.0778 12.9384 24.0778 12.123C24.0778 11.2411 23.7427 9.76111 22.7544 8.51569C21.789 7.29908 20.1751 6.27134 17.5147 6.27134C14.8539 6.27134 13.2319 7.29938 12.2589 8.51725Z" fill="black"/>
<path fill-rule="evenodd" clip-rule="evenodd" d="M12.2586 8.51734C11.263 9.76366 10.9219 11.2435 10.9219 12.123C10.9219 12.9384 10.991 14.0713 11.0493 14.8837C11.0686 15.1534 11.0133 15.4679 10.7777 15.7176C10.5392 15.9702 10.2148 16.0523 9.92496 16.0523C9.50646 16.0523 9.18817 15.8991 8.98455 15.8012L8.96091 15.7898C8.73373 15.6809 8.6143 15.6302 8.4387 15.6302C8.27897 15.6302 8.08393 15.6989 7.92929 15.824C7.77252 15.9509 7.72708 16.075 7.72708 16.146C7.72708 16.2907 7.78044 16.3939 7.97652 16.5208C8.2081 16.6706 8.53807 16.7832 8.97065 16.925L9.00831 16.9375C9.36753 17.0552 9.81248 17.2008 10.1636 17.4197C10.5577 17.6654 10.9219 18.0603 10.9219 18.6686C10.9219 18.828 10.8778 18.9815 10.8364 19.0977C10.7915 19.2239 10.7307 19.3571 10.6628 19.49C10.5265 19.7562 10.3422 20.0569 10.1395 20.3561C9.73756 20.9495 9.22658 21.5914 8.80187 22C8.37251 22.4131 7.72681 22.8773 7.07373 23.2395C6.74482 23.4219 6.40145 23.5855 6.07033 23.7049C5.77393 23.8119 5.4545 23.8957 5.14805 23.9088C5.14041 23.912 5.13198 23.9158 5.12314 23.9203C5.10901 23.9274 5.09579 23.9351 5.08427 23.9428L5.07837 23.9469C5.07953 23.9552 5.08084 23.9613 5.08195 23.9657C5.0844 23.9753 5.08731 23.9821 5.09123 23.9892C5.10324 24.0109 5.12219 24.0352 5.19884 24.1173L5.21895 24.1388C5.35703 24.2873 5.69732 24.4801 6.23671 24.6526C6.75044 24.8168 7.35792 24.9354 7.93185 24.9898C8.21901 25.017 8.38453 25.1965 8.45458 25.2931C8.52668 25.3927 8.56792 25.4978 8.59202 25.5675C8.63864 25.7025 8.67385 25.8687 8.70163 25.9998L8.70585 26.0198C8.74377 26.1985 8.77693 26.3513 8.8202 26.4791C8.83549 26.5242 8.84961 26.5586 8.86175 26.5838C8.88913 26.587 8.93112 26.5899 8.99194 26.5897C9.25585 26.5887 9.52006 26.5493 9.78154 26.5178C10.1999 26.4674 10.7176 26.405 11.2657 26.405C12.5369 26.405 13.3758 26.9782 14.186 27.5318L14.2315 27.5629C14.5314 27.7677 14.8319 27.9727 15.1699 28.1724C16.1222 28.7352 16.8468 28.7311 17.3761 28.7281C17.4134 28.7278 17.4497 28.7277 17.485 28.7277C17.5201 28.7277 17.5561 28.7278 17.5933 28.7281C18.1285 28.731 18.8773 28.7351 19.8295 28.1724C20.1674 27.9727 20.468 27.7677 20.7678 27.5629L20.8133 27.5318C21.6236 26.9782 22.4625 26.405 23.7337 26.405C24.2818 26.405 24.7995 26.4674 25.2178 26.5178L25.2304 26.5193C25.5687 26.5601 25.8163 26.5889 26.0075 26.5897C26.0682 26.5899 26.1102 26.587 26.1376 26.5838C26.1498 26.5586 26.1638 26.5242 26.1791 26.4791C26.2223 26.3513 26.2555 26.1985 26.2934 26.0198L26.2977 25.9998C26.3255 25.8687 26.3607 25.7025 26.4073 25.5675C26.4314 25.4977 26.4727 25.3927 26.5448 25.2931C26.6149 25.1964 26.7803 25.017 27.0675 24.9898C27.6415 24.9354 28.2489 24.8168 28.7626 24.6526C29.302 24.4801 29.6423 24.2875 29.7804 24.1388L29.8005 24.1173C29.8771 24.0352 29.8961 24.0109 29.9082 23.9892C29.912 23.9821 29.915 23.9753 29.9174 23.9657C29.9185 23.9613 29.9198 23.9552 29.921 23.9469L29.9151 23.9428C29.9036 23.9351 29.8904 23.9274 29.8762 23.9203C29.8674 23.9158 29.8589 23.912 29.8512 23.9088C29.5449 23.8957 29.2254 23.8119 28.929 23.7049C28.5979 23.5855 28.2545 23.4219 27.9256 23.2395C27.2725 22.8773 26.6268 22.4131 26.1975 22C25.7728 21.5914 25.2618 20.9495 24.8598 20.3561C24.6572 20.0569 24.4728 19.7562 24.3365 19.49C24.2685 19.3571 24.2079 19.2239 24.1629 19.0977C24.1216 18.9815 24.0775 18.828 24.0775 18.6686C24.0775 18.0603 24.4416 17.6654 24.8358 17.4197C25.1869 17.2008 25.6318 17.0552 25.991 16.9375L26.0287 16.925C26.4612 16.7832 26.7912 16.6706 27.0228 16.5208C27.2189 16.3939 27.2722 16.2907 27.2722 16.146C27.2722 16.075 27.2269 15.9509 27.07 15.824C26.9154 15.6989 26.7204 15.6302 26.5607 15.6302C26.385 15.6302 26.2656 15.6809 26.0384 15.7898L26.0148 15.8012C25.8112 15.8991 25.4929 16.0523 25.0744 16.0523C24.7846 16.0523 24.4602 15.9702 24.2217 15.7176C23.986 15.4679 23.9307 15.1534 23.9501 14.8837C24.0084 14.0713 24.0775 12.9384 24.0775 12.123C24.0775 11.2413 23.7424 9.76122 22.754 8.5158C21.7887 7.29918 20.1748 6.27144 17.5142 6.27144C14.8534 6.27144 13.2316 7.29949 12.2586 8.51734Z" fill="white"/>
</g>
<defs>
<clipPath id="clip0_1480_4020">
<rect width="35" height="35" fill="white"/>
</clipPath>
</defs>
</svg>
