<svg width="28" height="32" viewBox="0 0 28 32" fill="none" xmlns="http://www.w3.org/2000/svg">
<g clip-path="url(#clip0_1480_4043)">
<path d="M1.1272 26.2802L1.23067 26.5646C1.21742 26.532 1.17957 26.4325 1.1272 26.2802ZM5.22212 19.8347C5.40384 18.3064 6.02092 17.4507 7.18378 16.5735C8.84762 15.3855 10.926 16.0576 10.926 16.0576V12.071C11.4313 12.0578 11.9367 12.0883 12.4365 12.1619V17.2922C12.4365 17.2922 10.3588 16.6202 8.69493 17.8088C7.5327 18.6854 6.91436 19.5417 6.73327 21.07C6.72759 21.8999 6.88092 22.9847 7.58696 23.9226C7.4124 23.8317 7.23447 23.7281 7.05317 23.6118C5.49786 22.551 5.21455 20.9594 5.22212 19.8347ZM21.0182 4.69975C19.8736 3.42576 19.4408 2.13949 19.2843 1.2359H20.7242C20.7242 1.2359 20.4371 3.60513 22.5293 5.93505L22.5584 5.96637C21.9945 5.60608 21.4773 5.18079 21.0182 4.69975ZM27.9543 8.31165V13.3388C27.9543 13.3388 26.117 13.2657 24.7573 12.9144C22.8587 12.4229 21.6384 11.6692 21.6384 11.6692C21.6384 11.6692 20.7955 11.1317 20.7273 11.0943V21.4754C20.7273 22.0534 20.5715 23.497 20.0964 24.7009C19.4761 26.2759 18.519 27.3097 18.3429 27.521C18.3429 27.521 17.1788 28.9185 15.125 29.8595C13.2738 30.7085 11.6484 30.687 11.1626 30.7085C11.1626 30.7085 8.35295 30.8215 5.82469 29.1525C5.27797 28.7847 4.76764 28.368 4.30029 27.908L4.31291 27.9172C6.8418 29.5862 9.65083 29.4732 9.65083 29.4732C10.1373 29.4517 11.7627 29.4732 13.6133 28.6242C15.6651 27.6832 16.8312 26.2857 16.8312 26.2857C17.0053 26.0744 17.9669 25.0406 18.5846 23.465C19.0584 22.2617 19.2155 20.8175 19.2155 20.2395V9.8596C19.2837 9.89769 20.126 10.4352 20.126 10.4352C20.126 10.4352 21.3469 11.1895 23.2455 11.6803C24.6058 12.0317 26.4426 12.1047 26.4426 12.1047V8.16545C27.071 8.30858 27.6067 8.34727 27.9543 8.31165Z" fill="#EE1D52"/>
<path d="M26.4431 8.16545V12.1035C26.4431 12.1035 24.6064 12.0304 23.246 11.6791C21.3474 11.1876 20.1265 10.4339 20.1265 10.4339C20.1265 10.4339 19.2842 9.89646 19.2161 9.85837V20.2407C19.2161 20.8187 19.0602 22.2629 18.5851 23.4662C17.9649 25.0418 17.0077 26.0756 16.8317 26.287C16.8317 26.287 15.6669 27.6844 13.6138 28.6255C11.7632 29.4744 10.1378 29.4529 9.65135 29.4744C9.65135 29.4744 6.84232 29.5874 4.31343 27.9184L4.30081 27.9092C4.03382 27.6466 3.78249 27.3693 3.54808 27.0787C2.74108 26.0793 2.24641 24.8975 2.12211 24.5603C2.12189 24.5588 2.12189 24.5574 2.12211 24.556C1.9221 23.9699 1.50188 22.5627 1.55929 21.1996C1.66088 18.7947 2.49374 17.3187 2.71395 16.9489C3.29715 15.9405 4.05567 15.0382 4.95575 14.2823C5.75002 13.6301 6.6503 13.1111 7.61966 12.7467C8.66757 12.3188 9.7897 12.0895 10.9259 12.071V16.0576C10.9259 16.0576 8.84751 15.388 7.1843 16.5735C6.02144 17.4507 5.40436 18.3064 5.22265 19.8347C5.21507 20.9594 5.49837 22.551 7.05243 23.6124C7.23372 23.7291 7.41165 23.8328 7.58622 23.9233C7.85771 24.2817 8.18816 24.5941 8.56421 24.8477C10.0823 25.8238 11.3543 25.892 12.9809 25.2581C14.0655 24.8342 14.882 23.879 15.2606 22.8206C15.4985 22.1597 15.4953 21.4944 15.4953 20.8065V1.2359H19.2811C19.4375 2.13949 19.8704 3.42576 21.0149 4.69975C21.4741 5.18079 21.9912 5.60608 22.5551 5.96637C22.7217 6.14144 23.5735 7.00694 24.6669 7.53829C25.2323 7.81294 25.8283 8.02337 26.4431 8.16545Z" fill="black"/>
<path d="M0.615479 23.336V23.3391L0.709179 23.5977C0.698416 23.5676 0.663595 23.4761 0.615479 23.336Z" fill="#69C9D0"/>
<path d="M7.61991 12.7467C6.65055 13.1111 5.75027 13.6301 4.956 14.2824C4.05563 15.04 3.2973 15.9441 2.71483 16.9544C2.49463 17.323 1.66176 18.8003 1.56017 21.2051C1.50276 22.5682 1.92298 23.9755 2.12299 24.5615C2.12277 24.5629 2.12277 24.5644 2.12299 24.5658C2.24918 24.9 2.74196 26.0818 3.54896 27.0843C3.78337 27.3749 4.0347 27.6522 4.30169 27.9148C3.44623 27.3388 2.6833 26.6424 2.03781 25.8484C1.23775 24.8576 0.744343 23.688 0.615627 23.3428C0.615476 23.3403 0.615476 23.3379 0.615627 23.3354V23.3311C0.414982 22.7457 -0.0064984 21.3378 0.0521808 19.9729C0.153765 17.5681 0.986631 16.092 1.20684 15.7222C1.78913 14.7118 2.54749 13.8076 3.448 13.0501C4.24211 12.3976 5.14243 11.8786 6.11192 11.5145C6.71663 11.2702 7.34659 11.09 7.99091 10.977C8.96194 10.812 9.95367 10.7977 10.9293 10.9346V12.071C9.79204 12.0891 8.66881 12.3184 7.61991 12.7467Z" fill="#69C9D0"/>
<path d="M19.2843 1.23591H15.4985V20.8071C15.4985 21.4951 15.4985 22.1585 15.2638 22.8213C14.8814 23.879 14.0681 24.8342 12.9841 25.2581C11.3569 25.8944 10.0849 25.8238 8.56743 24.8477C8.19073 24.5952 7.85943 24.2839 7.58691 23.9263C8.87975 24.5977 10.0369 24.5861 11.4705 24.0258C12.5538 23.602 13.3684 22.6468 13.7495 21.5884C13.988 20.9275 13.9848 20.2622 13.9848 19.5749V0H19.2123C19.2123 0 19.1537 0.4865 19.2843 1.23591ZM26.4431 7.07636V8.16546C25.8294 8.02315 25.2345 7.81272 24.6701 7.53829C23.5767 7.00695 22.7249 6.14145 22.5583 5.96638C22.7516 6.08993 22.9522 6.20233 23.159 6.303C24.4884 6.94921 25.7977 7.14209 26.4431 7.07636Z" fill="#69C9D0"/>
</g>
<defs>
<clipPath id="clip0_1480_4043">
<rect width="28" height="32" fill="white"/>
</clipPath>
</defs>
</svg>
