<svg width="35" height="35" viewBox="0 0 35 35" fill="none" xmlns="http://www.w3.org/2000/svg">
<g clip-path="url(#clip0_1480_4039)">
<path fill-rule="evenodd" clip-rule="evenodd" d="M17.5 35C27.165 35 35 27.165 35 17.5C35 7.83502 27.165 0 17.5 0C7.83502 0 0 7.83502 0 17.5C0 27.165 7.83502 35 17.5 35Z" fill="#FF0002"/>
<path fill-rule="evenodd" clip-rule="evenodd" d="M15.0908 20.5478L15.09 13.9454L21.3944 17.258L15.0908 20.5478ZM28.9333 12.8013C28.9333 12.8013 28.705 11.1821 28.0058 10.469C27.1184 9.53276 26.1238 9.52835 25.668 9.47401C22.4028 9.23608 17.505 9.23608 17.505 9.23608H17.4948C17.4948 9.23608 12.597 9.23608 9.33179 9.47401C8.87534 9.52835 7.88148 9.53276 6.99336 10.469C6.29409 11.1821 6.06659 12.8013 6.06659 12.8013C6.06659 12.8013 5.83325 14.7032 5.83325 16.6044V18.3874C5.83325 20.2894 6.06659 22.1906 6.06659 22.1906C6.06659 22.1906 6.29409 23.8098 6.99336 24.5228C7.88148 25.4591 9.04742 25.4297 9.56659 25.5274C11.4333 25.7081 17.4999 25.7639 17.4999 25.7639C17.4999 25.7639 22.4028 25.7565 25.668 25.5186C26.1238 25.4635 27.1184 25.4591 28.0058 24.5228C28.705 23.8098 28.9333 22.1906 28.9333 22.1906C28.9333 22.1906 29.1666 20.2894 29.1666 18.3874V16.6044C29.1666 14.7032 28.9333 12.8013 28.9333 12.8013Z" fill="white"/>
</g>
<defs>
<clipPath id="clip0_1480_4039">
<rect width="35" height="35" fill="white"/>
</clipPath>
</defs>
</svg>
