<svg width="35" height="35" viewBox="0 0 35 35" fill="none" xmlns="http://www.w3.org/2000/svg">
<path d="M5.83333 0C2.61167 0 0 2.61167 0 5.83333V29.1667C0 32.3883 2.61167 35 5.83333 35H29.1667C32.3883 35 35 32.3883 35 29.1667V5.83333C35 2.61167 32.3883 0 29.1667 0H5.83333ZM7.57162 7.5H14.1862L18.8835 14.1748L24.5833 7.5H26.6667L19.8242 15.5111L28.2617 27.5H21.6488L16.1979 19.7559L9.58333 27.5H7.5L15.2572 18.4196L7.57162 7.5ZM10.7617 9.16667L22.5179 25.8333H25.0716L13.3154 9.16667H10.7617Z" fill="black"/>
</svg>
