<svg width="35" height="22" viewBox="0 0 35 22" fill="none" xmlns="http://www.w3.org/2000/svg">
<g clip-path="url(#clip0_1480_4064)">
<path d="M33.7821 22H1.45826C0.788331 22 0.240479 21.4648 0.240479 20.8109V1.18913C0.240479 0.535161 0.788331 0 1.45826 0H33.7815C34.4515 0 34.9993 0.535161 34.9993 1.18913V20.8109C34.9993 21.4648 34.4515 22 33.7815 22H33.7821Z" fill="#37E2D5"/>
<path d="M0 20.8109C0 21.4648 0.547852 22 1.21778 22H33.5411C34.211 22 34.7589 21.4648 34.7589 20.8109V20.681L17.8957 10.3775C17.5878 10.1892 17.1698 10.1892 16.8619 10.3775L0 20.681V20.8109Z" fill="#2CC6B7"/>
<path d="M34.9999 1.21428C34.9999 0.560308 34.4521 0.0251465 33.7821 0.0251465H1.45826C0.788331 0.0251465 0.240479 0.560308 0.240479 1.21428V1.34417L17.1036 11.6477C17.4115 11.8359 17.8295 11.8359 18.1374 11.6477L34.9999 1.34417V1.21428Z" fill="#5AF2E3"/>
<g style="mix-blend-mode:multiply">
<path d="M0.526855 21.7881C0.723505 21.9215 0.961649 22.0005 1.21844 22.0005H33.5417C34.2117 22.0005 34.7595 21.4653 34.7595 20.8114V11.7922C24.9601 18.9929 8.95031 21.1457 0.526855 21.7881Z" fill="#F6F6F6"/>
</g>
<path d="M2.23297 0.891617C1.62979 0.891617 1.14087 1.30092 1.14087 1.80587V2.01581L2.82772 3.04636C5.14302 2.14368 8.83125 1.23698 13.6645 0.891113H2.23297V0.891617Z" fill="#A5FFF8"/>
<path d="M1.14087 2.0163V3.83172C1.57927 3.57999 2.14396 3.31367 2.82772 3.04685L1.14087 2.0163Z" fill="#6DF0E6"/>
</g>
<defs>
<clipPath id="clip0_1480_4064">
<rect width="35" height="22" fill="white"/>
</clipPath>
</defs>
</svg>
