<svg width="22" height="28" viewBox="0 0 22 28" fill="none" xmlns="http://www.w3.org/2000/svg">
<path fill-rule="evenodd" clip-rule="evenodd" d="M6.45451 1.02606C9.22186 -0.297731 12.4648 -0.342767 15.2708 0.903617L15.5216 1.01501C18.4619 2.32103 20.3443 5.15063 20.3443 8.26412V9.80824C20.3443 11.0494 20.6257 12.2757 21.169 13.4016L21.4933 14.0741C22.9832 17.1624 21.0429 20.7722 17.5604 21.391L17.3641 21.4259C13.0557 22.1913 8.63788 22.1913 4.32959 21.4259C0.800182 20.7989 -1.06703 17.0454 0.640865 14.0109L0.918358 13.518C1.60334 12.3009 1.96204 10.939 1.96204 9.55523V7.99857C1.96204 5.04332 3.7021 2.34267 6.45451 1.02606Z" fill="#37E2D5"/>
<path fill-rule="evenodd" clip-rule="evenodd" d="M14.1216 23.714C14.875 23.6384 15.3841 24.4381 15.0282 25.0855C14.7774 25.5417 14.4239 25.9399 14.0005 26.266C13.5687 26.5985 13.0677 26.8537 12.5303 27.0251C11.9926 27.1967 11.4217 27.2835 10.8488 27.2835C10.2758 27.2835 9.70489 27.1967 9.16723 27.0251C8.62982 26.8537 8.12887 26.5985 7.6971 26.266C7.27365 25.9399 6.92015 25.5417 6.6694 25.0855C6.31352 24.4381 6.82255 23.6384 7.57595 23.714C7.81092 23.7375 9.64989 23.9173 10.8488 23.9173C12.0476 23.9173 13.8866 23.7375 14.1216 23.714Z" fill="#37E2D5"/>
</svg>
