<svg width="21" height="17" viewBox="0 0 21 17" fill="none" xmlns="http://www.w3.org/2000/svg">
<path fill-rule="evenodd" clip-rule="evenodd" d="M8.62505 0.833008H12.475C16.1048 0.833008 17.9198 0.833008 19.0474 1.95576C20.175 3.07853 20.175 4.88557 20.175 8.49967C20.175 12.1137 20.175 13.9209 19.0474 15.0436C17.9198 16.1663 16.1048 16.1663 12.475 16.1663H8.62505C4.99523 16.1663 3.18033 16.1663 2.05269 15.0436C0.925049 13.9209 0.925049 12.1137 0.925049 8.49967C0.925049 4.88557 0.925049 3.07853 2.05269 1.95576C3.18033 0.833008 4.99523 0.833008 8.62505 0.833008ZM11.7532 5.62467C11.7532 5.22772 12.0764 4.90592 12.475 4.90592H17.2875C17.6862 4.90592 18.0094 5.22772 18.0094 5.62467C18.0094 6.02163 17.6862 6.34342 17.2875 6.34342H12.475C12.0764 6.34342 11.7532 6.02163 11.7532 5.62467ZM12.7157 8.49967C12.7157 8.10273 13.0389 7.78092 13.4375 7.78092H17.2875C17.6862 7.78092 18.0094 8.10273 18.0094 8.49967C18.0094 8.89662 17.6862 9.21842 17.2875 9.21842H13.4375C13.0389 9.21842 12.7157 8.89662 12.7157 8.49967ZM13.6782 11.3747C13.6782 10.9777 14.0014 10.6559 14.4 10.6559H17.2875C17.6862 10.6559 18.0094 10.9777 18.0094 11.3747C18.0094 11.7716 17.6862 12.0934 17.2875 12.0934H14.4C14.0014 12.0934 13.6782 11.7716 13.6782 11.3747ZM9.58755 5.62467C9.58755 6.68325 8.72573 7.54134 7.66255 7.54134C6.5994 7.54134 5.73755 6.68325 5.73755 5.62467C5.73755 4.56613 6.5994 3.70801 7.66255 3.70801C8.72573 3.70801 9.58755 4.56613 9.58755 5.62467ZM7.66255 13.2913C11.5125 13.2913 11.5125 12.4332 11.5125 11.3747C11.5125 10.3161 9.78881 9.45801 7.66255 9.45801C5.53625 9.45801 3.81255 10.3161 3.81255 11.3747C3.81255 12.4332 3.81255 13.2913 7.66255 13.2913Z" fill="#37E2D5"/>
</svg>
