<svg width="21" height="21" viewBox="0 0 21 21" fill="none" xmlns="http://www.w3.org/2000/svg">
<path d="M0.916662 5.34629V15.5265C0.916662 16.593 1.6012 17.6595 2.67683 18.0473L7.56635 19.8895C7.85969 19.9864 8.15304 20.0834 8.54423 20.0834C9.03317 20.0834 9.61986 19.8895 10.1088 19.5986C10.3044 19.4047 10.5977 19.2108 10.6956 19.0168H14.4116C15.8784 19.0168 17.1497 17.8534 17.1497 16.3022V15.3326C17.1497 14.9448 16.8563 14.5569 16.3673 14.5569C15.8784 14.5569 15.585 14.8478 15.585 15.3326V16.3022C15.585 16.9808 14.9983 17.4656 14.4116 17.4656H11.1845V3.50416H14.4116C15.0961 3.50416 15.585 3.98894 15.585 4.66762V5.63715C15.585 6.02497 15.8784 6.41279 16.3673 6.41279C16.8563 6.41279 17.1497 6.02497 17.1497 5.63715V4.66762C17.1497 3.2133 15.9762 1.95289 14.4116 1.95289H10.6956C10.5 1.75898 10.3044 1.56507 10.1088 1.37116C9.32652 0.886389 8.44638 0.789434 7.56635 1.0803L2.67683 2.92243C1.69895 3.2133 0.916662 4.2798 0.916662 5.34629Z" fill="#B3B3B3"/>
<path d="M17.3453 13.1995C17.5408 13.1995 17.7364 13.1027 17.8342 13.0057L19.79 11.0666C19.8878 10.9696 19.8878 10.8727 19.9856 10.8727C19.9856 10.7757 20.0833 10.6787 20.0833 10.5819C20.0833 10.4849 20.0833 10.3879 19.9856 10.291C19.9856 10.194 19.8878 10.097 19.79 10.097L17.8342 8.15797C17.5408 7.8671 17.0519 7.8671 16.7585 8.15797C16.4651 8.44883 16.4651 8.93362 16.7585 9.22448L17.443 9.90317H13.4337C13.0425 9.90317 12.6514 10.194 12.6514 10.6787C12.6514 11.1636 13.0425 11.2606 13.4337 11.2606H17.5408L16.8563 11.9391C16.5629 12.23 16.5629 12.7148 16.8563 13.0057C16.9541 13.1027 17.1497 13.1995 17.3453 13.1995Z" fill="#B3B3B3"/>
</svg>
