<svg width="92" height="93" viewBox="0 0 92 93" fill="none" xmlns="http://www.w3.org/2000/svg">
<path d="M0.209473 46.025C0.209473 71.442 20.6734 92.05 45.9126 92.05C71.1519 92.05 91.6158 71.442 91.6158 46.025C91.6158 20.608 71.1519 0 45.9126 0C20.6734 0 0.209473 20.608 0.209473 46.025Z" fill="#EAEAEA"/>
<mask id="mask0_1337_2355" style="mask-type:luminance" maskUnits="userSpaceOnUse" x="0" y="0" width="92" height="93">
<path d="M0.209473 46.025C0.209473 71.442 20.6734 92.05 45.9126 92.05C71.1519 92.05 91.6158 71.442 91.6158 46.025C91.6158 20.608 71.1519 0 45.9126 0C20.6734 0 0.209473 20.608 0.209473 46.025Z" fill="white"/>
</mask>
<g mask="url(#mask0_1337_2355)">
<path d="M59.6474 69.591C58.1306 71.811 59.114 73.8821 59.9045 75.9145C61.1578 79.1442 63.0859 82.0632 64.2042 85.3641C66.0488 90.8009 67.3728 96.3542 67.7649 102.102C67.9898 105.37 67.2957 108.464 65.8881 111.415C64.9819 113.318 64.2814 115.286 64.3456 117.461C64.3906 118.891 64.5385 120.257 66.0231 120.897C67.5656 121.564 68.4461 120.535 69.3524 119.059C70.2714 121.208 71.5247 122.852 72.733 124.528C73.2408 125.227 73.0415 126.451 73.1379 127.435C73.2665 128.761 73.5235 130.043 74.3655 131.117C74.7447 131.603 74.6997 132.056 74.539 132.587C74.0441 134.243 73.53 135.9 73.1122 137.577C72.5916 139.641 71.1455 140.606 69.2431 141.014C67.9191 141.298 66.563 141.46 65.2004 141.357C62.4561 141.149 60.3673 140.217 58.9147 137.499C55.9454 131.946 52.854 126.464 50.5788 120.574C50.1289 119.409 49.5504 118.885 48.2007 118.878C45.18 118.859 42.3456 117.959 39.7362 116.399C39.3763 116.179 38.8814 115.674 38.5408 116.296C38.213 116.878 38.8557 117.098 39.2285 117.318C41.8893 118.872 44.743 119.855 47.828 119.92C48.9141 119.946 49.3319 120.334 49.7304 121.292C50.8423 123.952 52.0506 126.574 53.3103 129.169C54.7243 132.062 54.8785 135.124 54.66 138.243C54.5829 139.357 53.998 140.198 52.8218 140.535C48.3164 141.816 44.2416 141.48 40.681 137.939C32.5507 129.862 27.5762 120.14 26.0208 108.814C24.9089 100.723 26.1493 92.7815 29.1315 85.1635C31.0789 80.1927 33.7655 75.6426 36.8955 71.345C37.2811 70.8142 37.7567 70.4583 38.3351 70.18C43.4832 67.6881 48.8756 67.4292 54.39 68.3806C56.1254 68.6784 57.8671 68.9761 59.6474 69.591Z" fill="white"/>
</g>
<mask id="mask1_1337_2355" style="mask-type:luminance" maskUnits="userSpaceOnUse" x="0" y="0" width="92" height="93">
<path d="M0.209473 46.025C0.209473 71.442 20.6734 92.05 45.9126 92.05C71.1519 92.05 91.6158 71.442 91.6158 46.025C91.6158 20.608 71.1519 0 45.9126 0C20.6734 0 0.209473 20.608 0.209473 46.025Z" fill="white"/>
</mask>
<g mask="url(#mask1_1337_2355)">
<path d="M88.6915 126.754C88.9679 125.99 89.3021 125.291 89.4307 124.527C89.5014 124.107 89.7906 123.479 89.1672 123.324C88.6337 123.188 88.6208 123.809 88.4859 124.184C88.2224 124.922 87.991 125.686 87.6504 126.385C86.667 128.385 85.2016 129.712 82.7079 129.802C83.145 128.857 83.5113 128.061 83.8776 127.265C84.0447 126.896 84.3854 126.443 83.8198 126.197C83.2799 125.971 83.1514 126.54 82.9586 126.877C82.3737 127.874 81.8852 128.929 81.2232 129.861C80.2785 131.2 79.0702 132.23 77.2834 131.861C76.0559 131.608 75.1175 130.631 74.6419 129.505C74.0763 128.165 74.5262 126.786 74.147 125.427C73.9221 124.625 73.53 123.88 73.0865 123.175C72.1867 121.757 71.0491 120.469 70.4129 118.896C70.3871 118.832 70.3614 118.774 70.3422 118.709C69.8794 117.466 68.8575 118.126 68.2341 118.832C67.7263 119.408 67.4435 120.346 66.4409 119.906C65.4961 119.498 65.4061 118.579 65.3419 117.647C65.2262 115.848 65.7275 114.172 66.518 112.644C69.2881 107.311 69.1339 101.745 68.0798 96.0555C66.8715 89.5119 64.9562 83.2208 61.7234 77.3762C60.9586 75.9976 60.3673 74.5284 60.0459 72.9815C59.6025 70.8521 60.3544 69.9136 62.4882 69.7453C64.5063 69.5835 66.2866 70.2566 67.9513 71.3181C72.3731 74.1336 75.5224 78.1982 78.5367 82.36C83.1899 88.7935 87.1169 95.6413 89.7327 103.201C91.7766 109.097 92.49 115.155 91.9501 121.35C91.7509 123.615 91.1724 125.809 88.6915 126.754Z" fill="white"/>
</g>
<mask id="mask2_1337_2355" style="mask-type:luminance" maskUnits="userSpaceOnUse" x="0" y="0" width="92" height="93">
<path d="M0.209473 46.025C0.209473 71.442 20.6734 92.05 45.9126 92.05C71.1519 92.05 91.6158 71.442 91.6158 46.025C91.6158 20.608 71.1519 0 45.9126 0C20.6734 0 0.209473 20.608 0.209473 46.025Z" fill="white"/>
</mask>
<g mask="url(#mask2_1337_2355)">
<path d="M32.1844 76.4906C29.1187 81.908 26.7535 87.5842 25.558 93.7395C23.3985 104.84 25.1339 115.357 30.1534 125.389C30.4876 126.05 30.7704 126.729 29.9863 127.156C29.1572 127.609 28.4695 127.24 28.0518 126.412C27.8911 126.088 27.8075 125.726 27.6854 125.376C27.5119 124.878 27.3833 124.367 27.1648 123.894C26.8306 123.156 26.2329 122.69 25.4167 122.891C24.504 123.111 24.459 123.888 24.5683 124.671C24.7161 125.655 25.0439 126.606 24.986 127.622C24.9346 128.548 24.5361 128.826 23.6621 128.561C22.4666 128.192 21.5732 127.37 20.6992 126.561C16.7401 122.878 15.114 118.095 14.2335 112.898C12.7488 104.179 15.5125 96.6391 20.3328 89.6166C23.6942 84.717 27.5055 80.2057 31.7666 76.0699C32.1137 76.0116 32.2422 76.154 32.1844 76.4906Z" fill="white"/>
</g>
<mask id="mask3_1337_2355" style="mask-type:luminance" maskUnits="userSpaceOnUse" x="0" y="0" width="92" height="93">
<path d="M0.209473 46.025C0.209473 71.442 20.6734 92.05 45.9126 92.05C71.1519 92.05 91.6158 71.442 91.6158 46.025C91.6158 20.608 71.1519 0 45.9126 0C20.6734 0 0.209473 20.608 0.209473 46.025Z" fill="white"/>
</mask>
<g mask="url(#mask3_1337_2355)">
<path d="M32.1846 76.4906C32.0497 76.3547 31.9147 76.2188 31.7733 76.0764C31.9918 75.7398 32.1975 75.3773 32.6731 75.3062C32.8916 75.8692 32.5381 76.1799 32.1846 76.4906Z" fill="white"/>
</g>
<mask id="mask4_1337_2355" style="mask-type:luminance" maskUnits="userSpaceOnUse" x="0" y="0" width="92" height="93">
<path d="M0.209473 46.025C0.209473 71.442 20.6734 92.05 45.9126 92.05C71.1519 92.05 91.6158 71.442 91.6158 46.025C91.6158 20.608 71.1519 0 45.9126 0C20.6734 0 0.209473 20.608 0.209473 46.025Z" fill="white"/>
</mask>
<g mask="url(#mask4_1337_2355)">
<path d="M76.0556 24.9505C76.0042 23.8696 75.67 23.0541 74.963 22.2904C72.1929 19.2872 68.9986 16.8601 65.303 15.1578C55.5596 10.6789 45.3597 10.1676 34.9671 11.9152C28.8549 12.9443 23.4369 15.4944 18.9122 19.8503C18.1024 20.6334 17.7167 21.4295 17.7746 22.601C18.1281 30.109 18.3016 37.6234 18.7515 45.1249C19.0986 50.9436 19.7606 56.7363 20.2683 62.542C20.3583 63.5582 20.6989 64.2054 21.7594 64.6391C26.7147 66.652 31.8178 68.1018 37.0688 69.0662C37.5958 69.1633 38.0842 69.1374 38.592 68.9109C43.9522 66.5161 49.5116 66.5225 55.1739 67.4416C56.9092 67.7264 58.5803 68.6002 60.3606 68.3283C64.294 67.7264 68.0796 66.5678 71.7687 65.0598C72.7842 64.6456 73.1891 64.0501 73.3884 63.0339C75.2522 53.4742 76.3641 43.8434 76.3063 33.5588C76.3448 31.041 76.197 27.999 76.0556 24.9505ZM50.2122 34.3678C50.9063 33.2093 51.819 33.1381 52.6995 34.1995C53.6507 35.3516 53.8564 36.7367 53.8435 38.4907C53.8242 39.1703 53.8499 40.18 53.2715 41.0602C52.5902 42.1023 51.8254 42.18 50.9835 41.3191C49.5566 39.8564 49.1453 36.1412 50.2122 34.3678ZM38.3413 33.1834C39.1254 32.1543 40.0252 32.1672 40.88 33.3128C42.1205 34.9762 42.4675 36.9179 42.4804 38.9438C42.4868 40.3806 42.3004 41.7722 41.542 43.0214C40.8029 44.2447 39.8453 44.3288 38.8876 43.3062C37.0173 41.2803 36.696 35.3451 38.3413 33.1834ZM54.904 52.9694C51.6969 56.7298 47.9948 57.6878 43.3609 56.0373C39.9802 54.8334 37.0752 52.8335 34.3115 50.3999C44.717 53.2089 53.3679 50.8788 59.8336 41.8046C58.8952 45.9145 57.6162 49.7915 54.904 52.9694Z" fill="white"/>
</g>
</svg>
