<?xml version="1.0" encoding="UTF-8"?>
<!DOCTYPE svg PUBLIC "-//W3C//DTD SVG 1.1//EN" "http://www.w3.org/Graphics/SVG/1.1/DTD/svg11.dtd">
<svg xmlns="http://www.w3.org/2000/svg" version="1.1" width="84px" height="76px" style="shape-rendering:geometricPrecision; text-rendering:geometricPrecision; image-rendering:optimizeQuality; fill-rule:evenodd; clip-rule:evenodd" xmlns:xlink="http://www.w3.org/1999/xlink">
<g><path style="opacity:0.971" fill="#fcfefe" d="M 16.5,-0.5 C 33.1667,-0.5 49.8333,-0.5 66.5,-0.5C 67.441,4.07037 67.7744,8.73704 67.5,13.5C 66.5104,19.31 66.1771,25.31 66.5,31.5C 58.7117,36.6398 50.2117,40.3065 41,42.5C 32.2595,40.0452 24.0928,36.3785 16.5,31.5C 16.8222,25.642 16.4889,19.9753 15.5,14.5C 15.5,14.1667 15.5,13.8333 15.5,13.5C 15.2256,8.73704 15.559,4.07037 16.5,-0.5 Z"/></g>
<g><path style="opacity:1" fill="#43e3d6" d="M 33.5,6.5 C 53.7439,4.08797 60.0772,12.4213 52.5,31.5C 47.029,32.2422 41.529,32.9089 36,33.5C 30.3939,33.7073 27.7272,31.0406 28,25.5C 27.3333,20.5 27.3333,15.5 28,10.5C 29.4998,8.5313 31.3331,7.19796 33.5,6.5 Z"/></g>
<g><path style="opacity:0.525" fill="#d3ba90" d="M 15.5,13.5 C 15.5,13.8333 15.5,14.1667 15.5,14.5C 9.33449,13.2482 4.33449,14.9148 0.5,19.5C 0.847735,16.9807 2.18107,15.1474 4.5,14C 8.15159,13.5014 11.8183,13.3347 15.5,13.5 Z"/></g>
<g><path style="opacity:1" fill="#fdb782" d="M 15.5,14.5 C 15.8214,20.0262 15.4881,25.3595 14.5,30.5C 9.37517,28.4376 4.37517,26.1043 -0.5,23.5C -0.5,22.1667 -0.5,20.8333 -0.5,19.5C -0.166667,19.5 0.166667,19.5 0.5,19.5C 4.33449,14.9148 9.33449,13.2482 15.5,14.5 Z"/></g>
<g><path style="opacity:1" fill="#fddabe" d="M 15.5,14.5 C 16.4889,19.9753 16.8222,25.642 16.5,31.5C 15.5084,31.6716 14.8417,31.3382 14.5,30.5C 15.4881,25.3595 15.8214,20.0262 15.5,14.5 Z"/></g>
<g><path style="opacity:1" fill="#edd0b2" d="M 67.5,13.5 C 71.1817,13.3347 74.8484,13.5014 78.5,14C 79.056,14.3826 79.3893,14.8826 79.5,15.5C 75.5483,14.7279 71.5483,14.3946 67.5,14.5C 67.1786,20.0262 67.5119,25.3595 68.5,30.5C 68.1583,31.3382 67.4916,31.6716 66.5,31.5C 66.1771,25.31 66.5104,19.31 67.5,13.5 Z"/></g>
<g><path style="opacity:1" fill="#fcb783" d="M 79.5,15.5 C 80.8333,16.5 82.1667,17.5 83.5,18.5C 83.5,20.1667 83.5,21.8333 83.5,23.5C 78.6203,26.1067 73.6203,28.44 68.5,30.5C 67.5119,25.3595 67.1786,20.0262 67.5,14.5C 71.5483,14.3946 75.5483,14.7279 79.5,15.5 Z"/></g>
<g><path style="opacity:1" fill="#e9fbfa" d="M 36.5,16.5 C 37.6491,16.7911 38.3158,17.6244 38.5,19C 38.3333,19.8333 38.1667,20.6667 38,21.5C 36.7308,20.0953 36.2308,18.4286 36.5,16.5 Z"/></g>
<g><path style="opacity:0.995" fill="#3ae2d5" d="M -0.5,23.5 C 4.37517,26.1043 9.37517,28.4376 14.5,30.5C 14.8417,31.3382 15.5084,31.6716 16.5,31.5C 24.0928,36.3785 32.2595,40.0452 41,42.5C 50.2117,40.3065 58.7117,36.6398 66.5,31.5C 67.4916,31.6716 68.1583,31.3382 68.5,30.5C 73.6203,28.44 78.6203,26.1067 83.5,23.5C 83.5,39.1667 83.5,54.8333 83.5,70.5C 82.0527,72.4032 80.386,74.0699 78.5,75.5C 54.1667,75.5 29.8333,75.5 5.5,75.5C 3.20799,74.2101 1.20799,72.5435 -0.5,70.5C -0.5,54.8333 -0.5,39.1667 -0.5,23.5 Z"/></g>
<g><path style="opacity:1" fill="#edfcfb" d="M 44.5,22.5 C 46.4904,22.9931 46.4904,24.1598 44.5,26C 42.1667,28 39.8333,28 37.5,26C 40.4453,25.861 42.7786,24.6943 44.5,22.5 Z"/></g>
<g><path style="opacity:1" fill="#defaf7" d="M 29.5,52.5 C 30.8589,53.0065 31.8589,54.0065 32.5,55.5C 33.2164,54.689 34.0497,54.0223 35,53.5C 36.7043,53.974 38.5377,54.1407 40.5,54C 39.7417,55.3639 40.2417,56.5305 42,57.5C 42.3333,56.1667 42.6667,54.8333 43,53.5C 43.3076,54.3081 43.8076,54.9747 44.5,55.5C 45.3148,53.7241 46.4815,53.0574 48,53.5C 48.3333,54.8333 48.6667,56.1667 49,57.5C 50,54.8333 51,54.8333 52,57.5C 52.3333,56.1667 52.6667,54.8333 53,53.5C 54.7681,53.3645 56.6015,53.3645 58.5,53.5C 60.0454,56.1974 59.3787,58.1974 56.5,59.5C 55.5224,59.0233 54.6891,58.3567 54,57.5C 51.975,59.7253 49.6417,60.0586 47,58.5C 45.5823,61.001 44.5823,60.6677 44,57.5C 42.5993,59.1922 40.7659,59.8588 38.5,59.5C 38.6495,58.448 38.4828,57.448 38,56.5C 36.4006,60.893 33.9006,61.5597 30.5,58.5C 25.16,60.4933 23.4933,58.8267 25.5,53.5C 26.2811,54.7287 26.7811,56.062 27,57.5C 27.6914,55.1088 28.6914,55.1088 30,57.5C 30.3845,55.8034 30.2178,54.1368 29.5,52.5 Z"/></g>
</svg>
