<?xml version="1.0" encoding="UTF-8"?>
<!DOCTYPE svg PUBLIC "-//W3C//DTD SVG 1.1//EN" "http://www.w3.org/Graphics/SVG/1.1/DTD/svg11.dtd">
<svg xmlns="http://www.w3.org/2000/svg" version="1.1" width="84px" height="76px" style="shape-rendering:geometricPrecision; text-rendering:geometricPrecision; image-rendering:optimizeQuality; fill-rule:evenodd; clip-rule:evenodd" xmlns:xlink="http://www.w3.org/1999/xlink">
<g><path style="opacity:0.989" fill="#36e1d4" d="M 83.5,14.5 C 83.5,18.8333 83.5,23.1667 83.5,27.5C 81.962,30.8995 80.1287,34.2328 78,37.5C 67.9492,49.0451 58.1159,60.7118 48.5,72.5C 45.5541,73.6548 42.5541,73.8214 39.5,73C 28.3333,61.5 17.1667,50 6,38.5C 3.53937,34.9039 1.3727,31.2373 -0.5,27.5C -0.5,23.1667 -0.5,18.8333 -0.5,14.5C 7.5022,1.84137 18.1689,-0.825296 31.5,6.5C 35.2417,9.07398 38.0751,12.4073 40,16.5C 49.9607,0.0978504 62.9607,-2.90215 79,7.5C 80.5242,9.89805 82.0242,12.2314 83.5,14.5 Z"/></g>
</svg>
