<svg width="23" height="23" viewBox="0 0 23 23" fill="none" xmlns="http://www.w3.org/2000/svg">
<path fill-rule="evenodd" clip-rule="evenodd" d="M13.2279 5.11107C13.2279 3.34682 14.6646 1.91663 16.4369 1.91663C18.2091 1.91663 19.6459 3.34682 19.6459 5.11107C19.6459 6.87531 18.2091 8.30552 16.4369 8.30552C15.542 8.30552 14.7332 7.94067 14.1518 7.3537L9.70957 10.3782C9.75058 10.5824 9.77214 10.7932 9.77214 11.0085C9.77214 11.435 9.68781 11.8427 9.53504 12.2153L14.406 15.4155C14.9588 14.9654 15.6662 14.6944 16.4369 14.6944C18.2091 14.6944 19.6459 16.1246 19.6459 17.8889C19.6459 19.6531 18.2091 21.0833 16.4369 21.0833C14.6646 21.0833 13.2279 19.6531 13.2279 17.8889C13.2279 17.4268 13.3268 16.9869 13.5046 16.5898L8.673 13.4154C8.1094 13.9052 7.37114 14.2029 6.56315 14.2029C4.79089 14.2029 3.35419 12.7727 3.35419 11.0085C3.35419 9.24426 4.79089 7.81406 6.56315 7.81406C7.58226 7.81406 8.48944 8.28691 9.07683 9.02284L13.3821 6.09153C13.2819 5.78215 13.2279 5.45249 13.2279 5.11107Z" fill="#37E2D5"/>
</svg>
